<?xml version="1.0" ?>
<svg xmlns="http://www.w3.org/2000/svg" xmlns:xlink="http://www.w3.org/1999/xlink" version="1.1" viewBox="0 0 171 171" width="50px" height="50px">
  <g fill="none" fill-rule="nonzero" stroke="none" stroke-width="1" stroke-linecap="butt" stroke-linejoin="miter" stroke-miterlimit="10" stroke-dasharray="" stroke-dashoffset="0" font-family="none" font-weight="none" font-size="none" text-anchor="none" style="mix-blend-mode: normal">
    <path d="M0,171.98863v-171.98863h171.98863v171.98863z" fill-opacity="0" fill="#000000" />
    <g fill="#000000">
      <g id="surface1">
        <path d="M35.22867,41.04c-8.24273,0 -14.70867,6.61289 -14.70867,15.05602c0,3.11273 0.89508,5.03648 1.76344,6.51938l0.26719,0.54773l0.3607,0.44086c0.17367,0.24047 0.52102,0.73477 0.97523,1.37602h-23.88656v24.3675l1.72336,5.15672l10.26,30.78l1.54969,4.67578h15.61711l1.60312,-4.60898l0.02672,-0.09352l0.02672,0.09352l1.60312,4.60898h34.01297l1.60313,-4.58227l0.7882,-2.25773h3.27305l0.80156,2.25773l1.60312,4.58227h38.36813v-1.87031c1.30922,0.88172 3.40664,1.87031 6.15867,1.87031h28.37531c8.59008,0 15.05602,-6.46594 15.05602,-15.05602c0,-3.11273 -0.89508,-5.03648 -1.76344,-6.51937l-0.32063,-0.64125l-0.44086,-0.53437l-0.96187,-1.18898h8.6168v-41.04h-12.77156c1.17562,-2.27109 1.83023,-4.83609 1.83023,-7.52133c0,-9.05765 -7.36101,-16.41867 -16.41867,-16.41867h-27.36v10.66078l-2.08406,-6.0518l-1.58977,-4.60898zM35.22867,47.88h46.85133v6.84h-13.68v23.94h-10.26v-23.94h-18.47602c-1.36265,0 -2.37797,1.02867 -2.37797,2.39133c0,0.34734 0.33398,0.68133 0.33398,1.02867l6.50602,8.88398c0.33398,0.69469 1.01531,1.37602 1.01531,3.42c0,4.79602 -3.75398,8.21602 -8.20266,8.21602h-30.09867v-6.84h25.99735c1.36265,0 2.39133,-1.02867 2.04398,-2.39133c0,-0.34734 -0.34735,-0.68133 -0.34735,-1.02867c0,0 -5.11664,-7.52133 -6.14531,-8.88398c-0.34734,-0.69469 -1.02867,-1.37602 -1.02867,-3.42c0,-4.79602 3.42,-8.21602 7.86867,-8.21602zM89.94867,47.88h14.36133l10.59398,30.78h-8.55l-2.37797,-6.84h-13.01203l-2.37797,6.84h-8.55zM119.7,47.88h20.52c5.13,0 9.57867,4.10133 9.57867,9.57867c0,4.44867 -3.08601,8.20266 -7.18734,9.23133c0,0 2.05734,1.71 3.76734,3.75398c0.68133,0.69469 1.36266,1.37602 2.72531,1.37602h11.63602v6.84h-17.78133c-1.36265,0 -2.39133,-0.68133 -2.73867,-1.02867c-2.65852,-2.39133 -8.00227,-7.46789 -10.26,-9.60539c0,3.36656 0,10.63406 0,10.63406h-10.26zM97.13602,52.67602l-4.11469,12.30398h8.20265zM129.96,54.72v6.84h7.86867c2.05735,0 3.76735,-1.36265 3.76735,-3.42c0,-2.05734 -1.71,-3.42 -3.76735,-3.42zM48.58805,61.56h2.71195v4.62235c-0.30727,-0.88172 -0.69469,-1.60313 -1.06875,-2.25774l-0.26719,-0.4943l-0.32062,-0.4275zM75.24,61.56h3.11273l-3.11273,9.65883zM51.3,75.02625v10.47375h-14.36133c6.82664,0 12.4643,-4.3418 14.36133,-10.47375zM95.8268,78.66h3.28641l0.80156,2.25773l1.60312,4.58227h-8.09578l1.60313,-4.58227zM136.8,83.61633c1.30922,0.88172 3.39328,1.88367 6.15867,1.88367h1.71c-5.95828,0 -11.115,3.5536 -13.5464,8.71031c-2.77875,-5.18344 -8.22938,-8.71031 -14.50828,-8.71031h20.18602zM82.56094,85.5h6.35906v19.06383l-4.79602,-14.38805zM8.20266,92.34h8.55l4.44867,13.34602l4.79602,-13.34602h9.57867l4.43531,13.34602l4.44867,-13.34602h8.88398l-10.26,30.78h-5.79797l-6.50602,-18.81l-6.49265,18.81h-5.82469zM63.27,92.34h14.36133l10.26,30.78h-8.55l-2.39133,-6.84h-12.99867l-2.39133,6.84h-8.21602zM95.76,92.34h20.85398c5.13,0 9.59203,4.10133 9.59203,9.57867c0,4.44867 -3.08602,8.20266 -7.18735,9.23133c0,0 1.71,1.71 3.42,3.75398c0.68133,0.69469 1.36266,1.37602 2.72531,1.37602h18.14203c1.01531,0 2.04398,-1.02867 2.04398,-2.39133c0,-0.34734 -0.33398,-0.68133 -0.33398,-1.02867c0,0 -6.50602,-7.52133 -7.53469,-8.55c-0.34735,-0.68133 -1.01531,-1.36265 -1.01531,-3.42c0,-4.78265 3.75398,-8.55 8.20265,-8.55h16.07133v6.84h-11.28867c-1.02867,0 -2.05735,1.37602 -2.05735,2.73867c0,0.34735 0.34735,0.68133 0.34735,1.01531l6.84,8.55c0.34734,0.69469 1.02867,1.37602 1.02867,3.42c0,5.13 -3.76734,8.21602 -8.21602,8.21602h-28.37531c-1.36265,0 -2.39133,-0.68133 -2.73867,-1.02867c-2.65852,-2.39133 -8.01562,-7.49461 -10.26,-9.61875v10.64742h-10.26zM70.44398,97.13602l-4.08797,12.30398h8.20265zM106.02,99.18v6.84h7.86867c2.05735,0 3.76735,-1.36265 3.76735,-3.42c0,-2.05734 -1.71,-3.42 -3.76735,-3.42zM131.77687,108.21094l0.10688,0.20039l0.76148,0.73477c0.0668,0.0668 0.16031,0.16031 0.26719,0.2939h-1.69664c0.20039,-0.40078 0.40078,-0.81492 0.56109,-1.22906z" />
      </g>
    </g>
  </g>
</svg>
